<?xml version="1.0" standalone="no"?>
<!DOCTYPE svg PUBLIC "-//W3C//DTD SVG 20010904//EN"
 "http://www.w3.org/TR/2001/REC-SVG-20010904/DTD/svg10.dtd">
<svg version="1.0" xmlns="http://www.w3.org/2000/svg"
 width="512.000000pt" height="512.000000pt" viewBox="0 0 512.000000 512.000000"
 preserveAspectRatio="xMidYMid meet">
<metadata>
Created by potrace 1.11, written by Peter Selinger 2001-2013
</metadata>
<g transform="translate(0.000000,512.000000) scale(0.100000,-0.100000)"
fill="#000000" stroke="none">
<path d="M2285 5105 c-464 -53 -898 -226 -1273 -507 -119 -89 -339 -302 -437
-423 -238 -293 -429 -683 -509 -1041 -82 -365 -86 -731 -11 -1099 76 -375 270
-783 520 -1090 98 -121 318 -334 437 -423 357 -268 756 -433 1203 -498 167
-25 524 -25 690 0 452 66 840 227 1205 499 122 92 395 365 487 487 697 933
697 2166 0 3099 -39 53 -144 168 -232 256 -229 230 -399 352 -680 490 -251
123 -479 195 -748 236 -174 26 -488 33 -652 14z m445 -795 c241 -30 454 -126
608 -273 113 -109 182 -237 217 -402 28 -128 22 -437 -11 -597 -5 -24 -2 -28
16 -28 37 0 77 -28 96 -67 28 -56 26 -196 -4 -284 -25 -72 -68 -147 -112 -194
-16 -16 -58 -88 -95 -160 -162 -317 -343 -524 -550 -625 -100 -50 -175 -70
-290 -77 -376 -23 -677 205 -932 705 -35 70 -77 141 -93 157 -44 47 -87 122
-112 194 -30 88 -32 228 -4 284 19 39 59 67 96 67 18 0 21 4 16 28 -33 160
-39 469 -11 596 36 169 106 298 224 409 224 211 577 311 941 267z m-815 -2998
c1 -145 3 -163 28 -235 48 -138 152 -326 254 -460 68 -90 217 -241 296 -299
l67 -50 68 50 c219 164 454 487 549 759 25 72 28 90 28 236 0 136 2 156 15
151 8 -3 110 -35 225 -70 478 -148 650 -219 785 -322 89 -68 113 -96 105 -120
-14 -46 -286 -283 -445 -389 -797 -532 -1839 -537 -2641 -12 -181 118 -469
370 -469 410 0 21 84 99 159 147 102 66 256 132 456 196 110 35 270 87 355
114 85 28 157 50 160 51 3 1 5 -70 5 -157z m811 133 c53 -40 87 -90 79 -116
-4 -12 -43 -59 -86 -104 l-79 -82 86 -213 c55 -138 83 -221 80 -235 -14 -55
-233 -257 -259 -238 -125 92 -237 209 -237 248 0 8 38 110 85 227 l85 212 -55
49 c-59 52 -115 126 -115 151 0 9 25 40 55 71 l55 55 137 0 c130 0 138 -1 169
-25z"/>
<path d="M2077 3679 c-122 -29 -252 -140 -327 -280 -26 -50 -30 -67 -30 -139
0 -93 20 -241 55 -405 12 -60 22 -111 21 -112 -1 -2 -13 23 -26 55 -30 73 -75
139 -100 147 -54 17 -95 -49 -87 -144 7 -91 39 -171 96 -233 33 -37 73 -107
133 -228 108 -219 170 -314 272 -415 134 -133 266 -185 471 -185 216 0 347 51
480 184 104 104 166 199 273 416 60 121 100 191 133 228 81 89 123 256 85 330
-48 93 -122 48 -181 -111 -10 -26 -19 -46 -20 -45 -2 2 8 53 20 113 26 120 55
307 55 349 0 25 -3 26 -50 26 -82 0 -332 29 -442 51 -285 57 -519 171 -705
343 -39 36 -75 66 -79 65 -5 -1 -26 -5 -47 -10z"/>
</g>
</svg>
